# xmcd
#
# Track frame offsets:
#	150
#	14628
#	29457
#	42198
#	58214
#	69724
#	81543
#	95508
#	103822
#	120148
#	130792
#	149075
#	159578
#	170936
#	191491
#	204206
#	215112
#	228778
#
# Disc length: 3223 seconds
#
# Revision: 0
# Processed by: cddbd v1.5.2PL0 Copyright (c) Steve Scherf et al.
# Submitted via: EasyCDDAExtractor 16.0.8.2
#
DISCID=0e0c9512
DTITLE=Συλλογικός δίσκος - Oldies but goodies 07
DYEAR=2010
DGENRE=Ποικίλη
TTITLE0=The Forminx - Jeronimo Yanka [Βαγγ. Παπαθανασίου-Ν. Μαστοράκης]
TTITLE1=Τζορντανέλλι Λάκης - Το δικό μου τραγούδι [Κ. Νικολόπουλος-Σήβη Τηλιακ
TTITLE1=ού]
TTITLE2=The Sounds - Το μάθημα [L. Santercole-L. Beretta, απ. Γ. Παπαστεφάνου]
TTITLE3=Ελπίδα - Σ' έναν κόσμο γεμάτο αγάπη [L. Bigazzi-An. Bella, απ. Ν. Ελλη
TTITLE3=ναίος]
TTITLE4=Ρούσος Ντέμης-We Five - Paint it black [Mick Japper-Keith Richards]
TTITLE5=Χρυσός Τέρης - Ήταν μιά οπτασία [Fr. Migliacci-D. Farina, απ. Αθ. Τσόγ
TTITLE5=κας]
TTITLE6=The Mariners - Τα μάτια [Les Reed-Barry Mason, απ. Λ. Κογκαλίδης]
TTITLE7=Χρυσός Τέρης - Θυμήσου το Σεπτέμβρη [Γ. Σπανός-Γ. Παπαστεφάνου]
TTITLE8=Χριστίνα-The Sounds - It' s too late [Carole King-Toni Stern]
TTITLE9=Ράϊκου Ειρήνη - Δεν γυρίζω [H. Casey-Rick Finch, απ. Σέβη Τηλιακού]
TTITLE10=The Idols - Indian resevation [J. Loudermilk]
TTITLE11=The Girls - Hello Beethoven [Άλκης Έξαρχος]
TTITLE12=The Charms - Mr. Goose [Ν. Μαστοράκης-Κ. Τσερώνης]
TTITLE13=Κουρούκλη Ζωή - Χαμένα όνειρα [Gene Raskin, απ. Αθ. Τσόγκας]
TTITLE14=Χρυσός Τέρης - Κορίνα [C. Claroni-Al. Ciacci, απ. Γ. Παπαστεφάνου]
TTITLE15=Instrumental-Pinelli Tony - Yovanka Yanka [Giorgio Toe-Tony Pinelli]
TTITLE16=Χρυσός Τέρης - Fais la rire [D. Gerard-R. Bernet, Ab. Ferrario]
TTITLE17=Tammy - Μαύρα γλυκά ματάκια μου [Κ. Καπνίσης-Ι. Συλλάνταβος-Ν. Μάτσας
TTITLE17=]
EXTD=
EXTT0=
EXTT1=
EXTT2=
EXTT3=
EXTT4=
EXTT5=
EXTT6=
EXTT7=
EXTT8=
EXTT9=
EXTT10=
EXTT11=
EXTT12=
EXTT13=
EXTT14=
EXTT15=
EXTT16=
EXTT17=
PLAYORDER=
